<svg width="64" height="64" viewBox="0 0 64 64" fill="none" xmlns="http://www.w3.org/2000/svg">
<path d="M19.7463 47.6566C19.7463 44.0687 16.8825 41.1601 13.3497 41.1601C9.81702 41.1601 6.95319 44.0687 6.95319 47.6566C6.95319 51.2445 9.81702 54.1531 13.3497 54.1531C16.8825 54.1531 19.7463 51.2445 19.7463 47.6566Z" fill="#F2FFF2"/>
<path d="M59.405 19.0719C59.405 15.484 56.5412 12.5754 53.0084 12.5754C49.4757 12.5754 46.6119 15.484 46.6119 19.0719V47.6566C46.6119 51.2445 49.4757 54.1531 53.0084 54.1531C56.5412 54.1531 59.405 51.2445 59.405 47.6566V19.0719Z" fill="#F2FFF2"/>
<path d="M17.8359 14.4406C15.3379 11.9035 11.2878 11.9035 8.78977 14.4406C6.29176 16.9776 6.29177 21.091 8.78978 23.628L28.6912 43.8404C31.1892 46.3775 35.2393 46.3775 37.7373 43.8405C40.2353 41.3034 40.2353 37.19 37.7373 34.653L17.8359 14.4406Z" fill="#0A0F05"/>
</svg>
