<svg width="32" height="32" viewBox="0 0 32 32" fill="none" xmlns="http://www.w3.org/2000/svg">
<path d="M9.87318 23.8283C9.87318 22.0343 8.44126 20.58 6.6749 20.58C4.90854 20.58 3.47662 22.0343 3.47662 23.8283C3.47662 25.6223 4.90854 27.0765 6.6749 27.0765C8.44126 27.0765 9.87318 25.6223 9.87318 23.8283Z" fill="#F2FFF2"/>
<path d="M29.7025 9.53595C29.7025 7.74198 28.2706 6.28769 26.5042 6.28769C24.7379 6.28769 23.306 7.74198 23.306 9.53595V23.8283C23.306 25.6222 24.7379 27.0765 26.5042 27.0765C28.2706 27.0765 29.7025 25.6222 29.7025 23.8283V9.53595Z" fill="#F2FFF2"/>
<path d="M8.91794 7.2203C7.66893 5.95177 5.64389 5.95177 4.39489 7.22029C3.14588 8.48881 3.14588 10.5455 4.39489 11.814L14.3456 21.9202C15.5946 23.1887 17.6197 23.1887 18.8687 21.9202C20.1177 20.6517 20.1177 18.595 18.8687 17.3265L8.91794 7.2203Z" fill="#F2FFF2" fill-opacity="0.64"/>
</svg>
